<svg id="Layer_1" data-name="Layer 1" xmlns="http://www.w3.org/2000/svg" viewBox="0 0 1301.86 422.37"><path d="M390.66,442.24c-7.33,41.51-24.21,74.62-50.81,98.94s-60.67,36.59-102.05,36.59c-31.85,0-59-7.44-81.4-22.55S117,519.7,105.58,493.7,88.51,438,88.51,406.41s5.76-60.07,17.38-85.54c11.52-25.67,28.29-45.8,50-60.78,21.79-14.77,47.13-22.32,75.75-22.32,33.93,0,62.33,10,85.39,30.61q34.39,30.5,46.93,84.05H421q-16.18-69.49-66.94-105.87-50.94-36.31-122.47-36.26c-39.83,0-75.13,8.4-106,25.47a180.65,180.65,0,0,0-72.3,71.48Q27.37,353.47,27.42,413.74c0,37.94,7.95,72.31,24.1,102.92a180.93,180.93,0,0,0,69.24,72.63h-.31q45.12,26.88,106.45,26.82c35.93,0,67.89-7,95.65-21.26a175.82,175.82,0,0,0,67.69-60.27q25.92-39,34.24-92.45H390.86ZM666,511.1c-5.56,22.33-15.4,39.94-29.86,53.45s-33.43,20.24-56.79,20.24c-19.39,0-35.62-4.83-48.82-14.26S507.57,548,501,531.33s-9.84-35.73-9.84-56.59c0-3.57.2-7,.42-10.59H692.9c-.31-23.06-5.43-43.7-15.5-61.62a103.13,103.13,0,0,0-42.73-41.73C616.11,351,595.26,346,570.54,346s-46.73,5.45-66.43,16.57-35.19,27-46.62,47.68c-11.41,20.85-17.08,44.54-17.08,72.32s5.36,51.67,16.24,72.2c10.8,20.34,25.89,35.86,45,46.65,19,10.58,41.38,15.92,66.32,15.92,34.88,0,63-9.85,84.54-29.54S687.67,542.44,694,511H665.57ZM500.66,419.92c6.49-15.93,15.72-28.31,27.55-37.21s26.94-13.2,42.33-13.2,28.6,3.87,39.39,11.43,18.87,18,24.41,31.43a111.69,111.69,0,0,1,7.55,31.34h-148a128,128,0,0,1,6.69-23.79ZM947.72,515c-6.93,12.27-13.94,24.43-21.69,36.26h-.22c-5.14,7.86-10.68,15.61-17.61,21.9-6.18,5.67-16.23,13.53-26.07,10.59-5.14-1.57-6.4-7-6.91-11.32-.64-5.87,1.24-18.23,5.54-37.1L923.93,329,941,247.71s.11-.62.11-.82c.83-4.2,1.47-8.39,2.4-13.22,3.36-19.69-.2-31.12-14.87-36.46A42.27,42.27,0,0,0,914.07,195H867.24l-.53,1.68c6.93,2.2,13.11,5.56,17.72,10.37a25.61,25.61,0,0,1,4.81,7,24.64,24.64,0,0,1,2.21,5.87v.11c1.78,6.6,1.89,14.77-.42,24.85L873.53,329l-20.11,96.44-20.11,96.74c-5.56,9.84-11.32,19.49-17.5,29-5.14,8-10.7,15.61-17.61,22-6.18,5.67-16.34,13.51-26,10.59-5.14-1.57-6.4-7-6.91-11.32-.64-5.87,1.26-18.23,5.56-37.1l22.41-106.8,26.5-126.09,10.27-48.95a22.16,22.16,0,0,0,.42-2.3c1.16-5.87,2.09-11,3.24-17.5,3.37-19.71-.2-31.12-14.86-36.48a42.84,42.84,0,0,0-14.58-2.19h-47l-.53,1.68c17.92,5.54,31,18.85,24.41,48.2L721,534.05c-2.73,11.74-4.72,20.86-5.65,27.35a70.29,70.29,0,0,0-.53,18c2.61,22.13,16.34,32.91,41,32.91,23.17,0,41.82-13,55.75-28.81a174.16,174.16,0,0,0,13.41-18.25,64.62,64.62,0,0,0,0,14.26c2.52,22.11,16.23,32.91,41,32.91,23.15,0,41.8-13,55.84-28.81,15.6-17.72,40.12-63.41,42.64-68.44H947.61Zm188.36,86.16h0ZM1301,504.81c-4.92,24.52-14.57,44.23-29.13,58.7s-33.53,21.79-57.52,21.79c-28.8,0-50.5-10.48-65.17-31.12-14.55-20.86-22-48.74-22-80s6.91-56.28,20.84-75.36c13.73-19,33.74-28.39,59.52-28.39,22.1,0,39,6.91,50.28,20.42,11.43,13.73,19,30.92,22.42,51.78h47.26a110.46,110.46,0,0,0-19.29-49.05q-15.54-22-41.58-34.69c-17.6-8.37-37.63-12.78-60-12.78q-37.71,0-67.89,16.15c-20,10.56-35.82,26.4-47.25,46.93s-17,45.49-17,73,5.34,51.36,16.24,71.78,25.87,36.28,45.16,47.18h.09c19.38,10.78,41.4,16.12,66.23,16.12,35.93,0,65-10.25,86.94-31s35.22-47.79,40.14-81.44H1301Zm-257,78.61c-2.5-9.75-3.87-24.43-3.87-44.23V380.3a27.4,27.4,0,0,0-28.6-27.36l-10.26.33-34.68.51v2.11c5.76,4.29,10.27,8.9,13.2,14.24a58.58,58.58,0,0,1,6,19.91c1,8,1.57,19.09,1.57,33.24v115.8c0,19.71-1.37,34.48-4.21,44.23-2.61,9.65-8.37,17.41-17.07,23.28v2.08h94.71v-2.08a39.94,39.94,0,0,1-16.86-23.28ZM1000,267a28.91,28.91,0,0,0-20.33,20.34,29.4,29.4,0,0,0,36.26,36.16,28.81,28.81,0,0,0,20.22-20.24A29.4,29.4,0,0,0,1000,267Z" transform="translate(-27.42 -195)"/></svg>