<svg id="Layer_1" data-name="Layer 1" xmlns="http://www.w3.org/2000/svg" viewBox="0 0 1340 434.75"><defs><style>.cls-1{fill:#35c;}</style></defs><path class="cls-1" d="M386.88,278.61c-7.54,42.73-24.92,76.81-52.3,101.84s-62.44,37.66-105,37.66c-32.79,0-60.72-7.66-83.79-23.21s-40.56-36.56-52.3-63.33-17.58-57.38-17.58-89.84,5.93-61.83,17.9-88c11.85-26.42,29.11-47.14,51.43-62.55,22.44-15.21,48.52-23,78-23,34.93,0,64.16,10.35,87.89,31.5q35.42,31.39,48.32,86.52h58.75q-16.65-71.53-68.9-109Q296.82,39.82,223.18,39.88c-41,0-77.33,8.64-109.13,26.22a185.82,185.82,0,0,0-74.42,73.56Q13,187.24,13,249.27c0,39,8.19,74.44,24.8,105.94A186.35,186.35,0,0,0,109.08,430h-.32q46.44,27.66,109.57,27.61c37,0,69.88-7.23,98.45-21.89a180.84,180.84,0,0,0,69.67-62q26.67-40.16,35.25-95.16H387.09Zm283.4,70.88c-5.72,23-15.85,41.1-30.74,55s-34.4,20.84-58.45,20.84c-20,0-36.66-5-50.25-14.68s-23.62-23.19-30.42-40.35-10.12-36.78-10.12-58.25c0-3.67.21-7.23.43-10.9H698c-.32-23.73-5.59-45-16-63.42a106.07,106.07,0,0,0-44-43c-19.1-10.15-40.56-15.21-66-15.21s-48.11,5.61-68.38,17-36.23,27.84-48,49.09c-11.74,21.45-17.58,45.84-17.58,74.43s5.52,53.19,16.71,74.32c11.13,20.93,26.65,36.91,46.28,48,19.61,10.9,42.59,16.39,68.26,16.39,35.91,0,64.8-10.14,87-30.41s36.23-46.71,42.7-79.08H669.84ZM500.11,255.63c6.68-16.39,16.18-29.13,28.36-38.3s27.72-13.58,43.57-13.58,29.43,4,40.53,11.76S632,234.07,637.7,247.86a114.77,114.77,0,0,1,7.77,32.26H493.1A132.79,132.79,0,0,1,500,255.63Zm460.15,97.85c-7.13,12.63-14.34,25.14-22.32,37.32h-.23c-5.29,8.09-11,16.07-18.12,22.55-6.36,5.83-16.71,13.92-26.84,10.89-5.29-1.61-6.59-7.22-7.11-11.65-.66-6,1.28-18.76,5.7-38.18L935.77,162.1l17.58-83.71a8.1,8.1,0,0,0,.12-.85c.84-4.33,1.5-8.64,2.46-13.61,3.46-20.27-.21-32-15.3-37.53a43.52,43.52,0,0,0-15-2.27h-48.2l-.54,1.73c7.13,2.26,13.49,5.72,18.23,10.67a26.45,26.45,0,0,1,5,7.23,25.32,25.32,0,0,1,2.28,6v.11c1.83,6.79,1.94,15.21-.43,25.58l-18,86.61L863.2,261.36l-20.7,99.57c-5.72,10.13-11.65,20.07-18,29.87-5.29,8.21-11,16.07-18.12,22.66-6.36,5.83-16.83,13.91-26.75,10.9-5.29-1.62-6.58-7.23-7.11-11.65-.66-6,1.3-18.77,5.72-38.19L801.3,264.59l27.27-129.78,10.58-50.38a24,24,0,0,0,.43-2.37c1.19-6,2.15-11.33,3.34-18,3.46-20.28-.21-32-15.31-37.54a44,44,0,0,0-15-2.26H764.21L763.66,26c18.45,5.7,31.92,19.4,25.13,49.61l-61.9,297.53c-2.81,12.08-4.86,21.47-5.82,28.15a72.64,72.64,0,0,0-.54,18.56c2.69,22.77,16.82,33.88,42.15,33.88,23.85,0,43.05-13.38,57.39-29.66a180.06,180.06,0,0,0,13.79-18.79,67.2,67.2,0,0,0,0,14.68c2.6,22.76,16.72,33.88,42.18,33.88,23.83,0,43-13.38,57.48-29.66,16.05-18.24,41.29-65.27,43.88-70.44H960.15Zm193.89,88.68h0ZM1323.89,343c-5.07,25.23-15,45.52-30,60.41s-34.51,22.43-59.2,22.43c-29.65,0-52-10.78-67.08-32-15-21.47-22.64-50.17-22.64-82.32s7.11-57.93,21.46-77.56c14.13-19.53,34.72-29.22,61.25-29.22,22.76,0,40.11,7.11,51.76,21,11.76,14.13,19.52,31.82,23.07,53.3h48.65a113.67,113.67,0,0,0-19.85-50.5q-16-22.63-42.8-35.7c-18.12-8.62-38.73-13.16-61.8-13.16q-38.82,0-69.88,16.62c-20.59,10.88-36.87,27.18-48.63,48.31s-17.47,46.83-17.47,75.1,5.5,52.86,16.71,73.89,26.63,37.33,46.49,48.55h.09c20,11.11,42.61,16.6,68.17,16.6,37,0,66.85-10.56,89.49-31.92S1347.94,377.65,1353,343h-29.11Zm-264.54,80.9c-2.58-10-4-25.14-4-45.52V214.85a28.19,28.19,0,0,0-29.44-28.15l-10.55.33-35.71.53v2.17c5.93,4.42,10.58,9.16,13.59,14.66a60.31,60.31,0,0,1,6.16,20.49c1.07,8.21,1.61,19.65,1.61,34.22V378.29c0,20.28-1.41,35.49-4.32,45.52-2.7,9.94-8.62,17.92-17.58,24v2.15h97.49v-2.15a41.12,41.12,0,0,1-17.36-24ZM1014.07,98.24a29.75,29.75,0,0,0-20.93,20.93,30.26,30.26,0,0,0,37.32,37.22,29.65,29.65,0,0,0,20.81-20.83A30.26,30.26,0,0,0,1014.07,98.24Z" transform="translate(-13 -24.13)"/></svg>